# MagicaVoxel @ Ephtracy

# group
o 

# material
mtllib chicken.mtl
usemtl palette

# normals
vn -1 0 0
vn 1 0 0
vn 0 0 1
vn 0 0 -1
vn 0 -1 0
vn 0 1 0

# texcoords
vt 0.0449219 0.5
vt 0.208984 0.5
vt 0.279297 0.5
vt 0.537109 0.5
vt 0.876953 0.5
vt 0.958984 0.5

# verts
v -0.6 0.7 0.6
v -0.6 0.7 0.2
v -0.6 0.9 0.6
v -0.6 0.9 0.5
v -0.6 0.9 0.3
v -0.6 0.9 0.2
v -0.6 1 0.5
v -0.6 1 0.3
v -0.5 0.5 0.6
v -0.5 0.5 0.2
v -0.5 0.7 0.6
v -0.5 0.7 0.2
v -0.4 0.4 0.7
v -0.4 0.4 0.1
v -0.4 0.5 0.6
v -0.4 0.5 0.2
v -0.4 0.8 0.7
v -0.4 0.8 0.6
v -0.4 0.8 0.2
v -0.4 0.8 0.1
v 0.1 0 0.7
v 0.1 0 0.6
v 0.1 0 0.2
v 0.1 0 0.1
v 0.1 0.4 0.6
v 0.1 0.4 0.2
v 0.1 0.5 0.7
v 0.1 0.5 0.6
v 0.1 0.5 0.2
v 0.1 0.5 0.1
v 0.2 0 0.8
v 0.2 0 0.7
v 0.2 0 0.6
v 0.2 0 0.5
v 0.2 0 0.3
v 0.2 0 0.2
v 0.2 0 0.1
v 0.2 0 -5.96046e-08
v 0.2 0.1 0.8
v 0.2 0.1 0.7
v 0.2 0.1 0.6
v 0.2 0.1 0.5
v 0.2 0.1 0.3
v 0.2 0.1 0.2
v 0.2 0.1 0.1
v 0.2 0.1 -5.96046e-08
v 0.2 0.7 0.6
v 0.2 0.7 0.5
v 0.2 0.8 0.5
v 0.2 0.8 0.3
v 0.2 0.8 0.2
v 0.2 1 0.6
v 0.2 1 0.2
v 0.3 0.7 0.3
v 0.3 0.7 0.2
v 0.3 0.8 0.3
v 0.3 0.8 0.2
v -0.4 0.9 0.5
v -0.4 0.9 0.3
v -0.4 1 0.5
v -0.4 1 0.3
v -0.3 0.8 0.6
v -0.3 0.8 0.2
v -0.3 0.9 0.6
v -0.3 0.9 0.2
v -0.0999999 0.7 0.7
v -0.0999999 0.7 0.6
v -0.0999999 0.7 0.2
v -0.0999999 0.7 0.1
v -0.0999999 0.8 0.7
v -0.0999999 0.8 0.6
v -0.0999999 0.8 0.2
v -0.0999999 0.8 0.1
v 5.96046e-08 0.4 0.7
v 5.96046e-08 0.4 0.6
v 5.96046e-08 0.4 0.2
v 5.96046e-08 0.4 0.1
v 5.96046e-08 0.7 0.7
v 5.96046e-08 0.7 0.6
v 5.96046e-08 0.7 0.2
v 5.96046e-08 0.7 0.1
v 0.1 0.7 0.6
v 0.1 0.7 0.5
v 0.1 0.7 0.3
v 0.1 0.7 0.2
v 0.1 0.8 0.6
v 0.1 0.8 0.5
v 0.1 0.8 0.3
v 0.1 0.8 0.2
v 0.2 0.2 0.7
v 0.2 0.2 0.6
v 0.2 0.2 0.2
v 0.2 0.2 0.1
v 0.2 0.4 0.6
v 0.2 0.4 0.2
v 0.2 0.5 0.7
v 0.2 0.5 0.6
v 0.2 0.5 0.2
v 0.2 0.5 0.1
v 0.3 0 0.8
v 0.3 0 0.7
v 0.3 0 0.6
v 0.3 0 0.5
v 0.3 0 0.3
v 0.3 0 0.2
v 0.3 0 0.1
v 0.3 0 -5.96046e-08
v 0.3 0.1 0.8
v 0.3 0.1 0.7
v 0.3 0.1 0.6
v 0.3 0.1 0.5
v 0.3 0.1 0.3
v 0.3 0.1 0.2
v 0.3 0.1 0.1
v 0.3 0.1 -5.96046e-08
v 0.3 0.2 0.7
v 0.3 0.2 0.6
v 0.3 0.2 0.2
v 0.3 0.2 0.1
v 0.4 0 0.7
v 0.4 0 0.6
v 0.4 0 0.2
v 0.4 0 0.1
v 0.4 0.1 0.7
v 0.4 0.1 0.6
v 0.4 0.1 0.2
v 0.4 0.1 0.1
v 0.5 0.4 0.6
v 0.5 0.4 0.5
v 0.5 0.4 0.3
v 0.5 0.4 0.2
v 0.5 0.7 0.6
v 0.5 0.7 0.5
v 0.5 0.7 0.3
v 0.5 0.7 0.2
v 0.5 0.8 0.6
v 0.5 0.8 0.5
v 0.5 0.8 0.3
v 0.5 0.8 0.2
v 0.5 0.9 0.6
v 0.5 0.9 0.5
v 0.5 0.9 0.3
v 0.5 0.9 0.2
v 0.6 0.4 0.5
v 0.6 0.4 0.3
v 0.6 0.5 0.5
v 0.6 0.5 0.3
v 0.6 0.7 0.6
v 0.6 0.7 0.5
v 0.6 0.7 0.3
v 0.6 0.7 0.2
v 0.6 0.8 0.6
v 0.6 0.8 0.5
v 0.6 0.8 0.3
v 0.6 0.8 0.2
v 0.6 0.9 0.6
v 0.6 0.9 0.5
v 0.6 0.9 0.3
v 0.6 0.9 0.2
v 0.6 1 0.6
v 0.6 1 0.2
v 0.7 0.5 0.5
v 0.7 0.5 0.3
v 0.7 0.6 0.5
v 0.7 0.6 0.3
v 0.7 0.7 0.5
v 0.7 0.7 0.3
v 0.2 0 0.8
v 0.2 0.1 0.8
v 0.3 0 0.8
v 0.3 0.1 0.8
v -0.4 0.4 0.7
v -0.4 0.8 0.7
v -0.2 0.5 0.7
v -0.2 0.8 0.7
v -0.0999999 0.4 0.7
v -0.0999999 0.5 0.7
v -0.0999999 0.7 0.7
v -0.0999999 0.8 0.7
v 5.96046e-08 0.4 0.7
v 5.96046e-08 0.7 0.7
v 0.1 0 0.7
v 0.1 0.5 0.7
v 0.2 0 0.7
v 0.2 0.1 0.7
v 0.2 0.2 0.7
v 0.2 0.5 0.7
v 0.3 0 0.7
v 0.3 0.1 0.7
v 0.3 0.2 0.7
v 0.4 0 0.7
v 0.4 0.1 0.7
v -0.6 0.7 0.6
v -0.6 0.9 0.6
v -0.5 0.5 0.6
v -0.5 0.7 0.6
v -0.4 0.5 0.6
v -0.4 0.8 0.6
v -0.3 0.8 0.6
v -0.3 0.9 0.6
v -0.0999999 0.7 0.6
v -0.0999999 0.8 0.6
v 5.96046e-08 0.4 0.6
v 5.96046e-08 0.7 0.6
v 0.1 0.4 0.6
v 0.1 0.5 0.6
v 0.1 0.7 0.6
v 0.1 0.8 0.6
v 0.2 0.4 0.6
v 0.2 0.5 0.6
v 0.2 0.7 0.6
v 0.2 1 0.6
v 0.4 0.8 0.6
v 0.4 0.9 0.6
v 0.5 0.4 0.6
v 0.5 0.7 0.6
v 0.5 0.8 0.6
v 0.5 0.9 0.6
v 0.6 0.7 0.6
v 0.6 0.8 0.6
v 0.6 0.9 0.6
v 0.6 1 0.6
v -0.6 0.9 0.5
v -0.6 1 0.5
v -0.4 0.9 0.5
v -0.4 1 0.5
v 0.1 0.7 0.5
v 0.1 0.8 0.5
v 0.2 0.7 0.5
v 0.2 0.8 0.5
v 0.5 0.4 0.5
v 0.5 0.7 0.5
v 0.5 0.8 0.5
v 0.5 0.9 0.5
v 0.6 0.4 0.5
v 0.6 0.5 0.5
v 0.6 0.6 0.5
v 0.6 0.7 0.5
v 0.6 0.8 0.5
v 0.6 0.9 0.5
v 0.7 0.5 0.5
v 0.7 0.6 0.5
v 0.7 0.7 0.5
v 0.2 0 0.3
v 0.2 0.1 0.3
v 0.3 0 0.3
v 0.3 0.1 0.3
v 0.1 0 0.2
v 0.1 0.4 0.2
v 0.2 0 0.2
v 0.2 0.1 0.2
v 0.2 0.2 0.2
v 0.2 0.4 0.2
v 0.3 0 0.2
v 0.3 0.1 0.2
v 0.3 0.2 0.2
v 0.4 0 0.2
v 0.4 0.1 0.2
v 0.1 0 0.6
v 0.1 0.4 0.6
v 0.2 0 0.6
v 0.2 0.1 0.6
v 0.2 0.2 0.6
v 0.2 0.4 0.6
v 0.3 0 0.6
v 0.3 0.1 0.6
v 0.3 0.2 0.6
v 0.4 0 0.6
v 0.4 0.1 0.6
v 0.2 0 0.5
v 0.2 0.1 0.5
v 0.3 0 0.5
v 0.3 0.1 0.5
v -0.6 0.9 0.3
v -0.6 1 0.3
v -0.4 0.9 0.3
v -0.4 1 0.3
v 0.1 0.7 0.3
v 0.1 0.8 0.3
v 0.2 0.8 0.3
v 0.3 0.7 0.3
v 0.3 0.8 0.3
v 0.5 0.4 0.3
v 0.5 0.7 0.3
v 0.5 0.8 0.3
v 0.5 0.9 0.3
v 0.6 0.4 0.3
v 0.6 0.5 0.3
v 0.6 0.6 0.3
v 0.6 0.7 0.3
v 0.6 0.8 0.3
v 0.6 0.9 0.3
v 0.7 0.5 0.3
v 0.7 0.6 0.3
v 0.7 0.7 0.3
v -0.6 0.7 0.2
v -0.6 0.9 0.2
v -0.5 0.5 0.2
v -0.5 0.7 0.2
v -0.4 0.5 0.2
v -0.4 0.8 0.2
v -0.3 0.8 0.2
v -0.3 0.9 0.2
v -0.0999999 0.7 0.2
v -0.0999999 0.8 0.2
v 5.96046e-08 0.4 0.2
v 5.96046e-08 0.7 0.2
v 0.1 0.4 0.2
v 0.1 0.5 0.2
v 0.1 0.7 0.2
v 0.1 0.8 0.2
v 0.2 0.4 0.2
v 0.2 0.5 0.2
v 0.2 0.8 0.2
v 0.2 1 0.2
v 0.3 0.7 0.2
v 0.3 0.8 0.2
v 0.4 0.8 0.2
v 0.4 0.9 0.2
v 0.5 0.4 0.2
v 0.5 0.7 0.2
v 0.5 0.8 0.2
v 0.5 0.9 0.2
v 0.6 0.7 0.2
v 0.6 0.8 0.2
v 0.6 0.9 0.2
v 0.6 1 0.2
v -0.4 0.4 0.1
v -0.4 0.8 0.1
v -0.2 0.5 0.1
v -0.2 0.8 0.1
v -0.0999999 0.4 0.1
v -0.0999999 0.5 0.1
v -0.0999999 0.7 0.1
v -0.0999999 0.8 0.1
v 5.96046e-08 0.4 0.1
v 5.96046e-08 0.7 0.1
v 0.1 0 0.1
v 0.1 0.5 0.1
v 0.2 0 0.1
v 0.2 0.1 0.1
v 0.2 0.2 0.1
v 0.2 0.5 0.1
v 0.3 0 0.1
v 0.3 0.1 0.1
v 0.3 0.2 0.1
v 0.4 0 0.1
v 0.4 0.1 0.1
v 0.2 0 -5.96046e-08
v 0.2 0.1 -5.96046e-08
v 0.3 0 -5.96046e-08
v 0.3 0.1 -5.96046e-08
v 0.2 0 0.8
v 0.3 0 0.8
v 0.1 0 0.7
v 0.2 0 0.7
v 0.3 0 0.7
v 0.4 0 0.7
v 0.1 0 0.6
v 0.2 0 0.6
v 0.3 0 0.6
v 0.4 0 0.6
v 0.2 0 0.5
v 0.3 0 0.5
v 0.2 0 0.3
v 0.3 0 0.3
v 0.1 0 0.2
v 0.2 0 0.2
v 0.3 0 0.2
v 0.4 0 0.2
v 0.1 0 0.1
v 0.2 0 0.1
v 0.3 0 0.1
v 0.4 0 0.1
v 0.2 0 -5.96046e-08
v 0.3 0 -5.96046e-08
v -0.4 0.4 0.7
v -0.0999999 0.4 0.7
v 5.96046e-08 0.4 0.7
v -0.3 0.4 0.6
v -0.0999999 0.4 0.6
v 5.96046e-08 0.4 0.6
v 0.1 0.4 0.6
v 0.2 0.4 0.6
v 0.5 0.4 0.6
v 0.5 0.4 0.5
v 0.6 0.4 0.5
v 0.5 0.4 0.3
v 0.6 0.4 0.3
v -0.3 0.4 0.2
v -0.0999999 0.4 0.2
v 5.96046e-08 0.4 0.2
v 0.1 0.4 0.2
v 0.2 0.4 0.2
v 0.5 0.4 0.2
v -0.4 0.4 0.1
v -0.0999999 0.4 0.1
v 5.96046e-08 0.4 0.1
v -0.5 0.5 0.6
v -0.4 0.5 0.6
v 0.6 0.5 0.5
v 0.7 0.5 0.5
v 0.6 0.5 0.3
v 0.7 0.5 0.3
v -0.5 0.5 0.2
v -0.4 0.5 0.2
v -0.6 0.7 0.6
v -0.5 0.7 0.6
v 0.5 0.7 0.6
v 0.6 0.7 0.6
v 0.5 0.7 0.5
v 0.6 0.7 0.5
v 0.5 0.7 0.3
v 0.6 0.7 0.3
v -0.6 0.7 0.2
v -0.5 0.7 0.2
v 0.5 0.7 0.2
v 0.6 0.7 0.2
v 0.2 0.8 0.3
v 0.3 0.8 0.3
v 0.2 0.8 0.2
v 0.3 0.8 0.2
v 0.5 0.9 0.6
v 0.6 0.9 0.6
v 0.5 0.9 0.5
v 0.6 0.9 0.5
v 0.5 0.9 0.3
v 0.6 0.9 0.3
v 0.5 0.9 0.2
v 0.6 0.9 0.2
v 0.2 0.1 0.8
v 0.3 0.1 0.8
v 0.2 0.1 0.7
v 0.3 0.1 0.7
v 0.4 0.1 0.7
v 0.2 0.1 0.6
v 0.3 0.1 0.6
v 0.4 0.1 0.6
v 0.2 0.1 0.5
v 0.3 0.1 0.5
v 0.2 0.1 0.3
v 0.3 0.1 0.3
v 0.2 0.1 0.2
v 0.3 0.1 0.2
v 0.4 0.1 0.2
v 0.2 0.1 0.1
v 0.3 0.1 0.1
v 0.4 0.1 0.1
v 0.2 0.1 -5.96046e-08
v 0.3 0.1 -5.96046e-08
v 0.2 0.2 0.7
v 0.3 0.2 0.7
v 0.2 0.2 0.6
v 0.3 0.2 0.6
v 0.2 0.2 0.2
v 0.3 0.2 0.2
v 0.2 0.2 0.1
v 0.3 0.2 0.1
v 0.1 0.5 0.7
v 0.2 0.5 0.7
v 0.1 0.5 0.6
v 0.2 0.5 0.6
v 0.1 0.5 0.2
v 0.2 0.5 0.2
v 0.1 0.5 0.1
v 0.2 0.5 0.1
v -0.0999999 0.7 0.7
v 5.96046e-08 0.7 0.7
v -0.0999999 0.7 0.6
v 5.96046e-08 0.7 0.6
v 0.1 0.7 0.6
v 0.2 0.7 0.6
v 0.1 0.7 0.5
v 0.2 0.7 0.5
v 0.6 0.7 0.5
v 0.7 0.7 0.5
v 0.1 0.7 0.3
v 0.3 0.7 0.3
v 0.6 0.7 0.3
v 0.7 0.7 0.3
v -0.0999999 0.7 0.2
v 5.96046e-08 0.7 0.2
v 0.1 0.7 0.2
v 0.3 0.7 0.2
v -0.0999999 0.7 0.1
v 5.96046e-08 0.7 0.1
v -0.4 0.8 0.7
v -0.2 0.8 0.7
v -0.0999999 0.8 0.7
v -0.4 0.8 0.6
v -0.3 0.8 0.6
v -0.0999999 0.8 0.6
v 0.1 0.8 0.6
v 0.5 0.8 0.6
v 0.6 0.8 0.6
v 0.1 0.8 0.5
v 0.2 0.8 0.5
v 0.5 0.8 0.5
v 0.6 0.8 0.5
v 0.1 0.8 0.3
v 0.2 0.8 0.3
v 0.5 0.8 0.3
v 0.6 0.8 0.3
v -0.4 0.8 0.2
v -0.3 0.8 0.2
v -0.0999999 0.8 0.2
v 0.1 0.8 0.2
v 0.5 0.8 0.2
v 0.6 0.8 0.2
v -0.4 0.8 0.1
v -0.2 0.8 0.1
v -0.0999999 0.8 0.1
v -0.6 0.9 0.6
v -0.3 0.9 0.6
v -0.6 0.9 0.5
v -0.4 0.9 0.5
v -0.6 0.9 0.3
v -0.4 0.9 0.3
v -0.6 0.9 0.2
v -0.3 0.9 0.2
v 0.2 1 0.6
v 0.6 1 0.6
v -0.6 1 0.5
v -0.4 1 0.5
v -0.6 1 0.3
v -0.4 1 0.3
v 0.2 1 0.2
v 0.6 1 0.2

# faces
f 3/4/1 2/4/1 1/4/1
f 4/4/1 2/4/1 3/4/1
f 5/4/1 2/4/1 4/4/1
f 6/4/1 2/4/1 5/4/1
f 7/4/1 5/4/1 4/4/1
f 8/4/1 5/4/1 7/4/1
f 11/4/1 10/4/1 9/4/1
f 12/4/1 10/4/1 11/4/1
f 15/4/1 14/4/1 13/4/1
f 16/4/1 14/4/1 15/4/1
f 17/4/1 15/4/1 13/4/1
f 18/4/1 15/4/1 17/4/1
f 19/4/1 14/4/1 16/4/1
f 20/4/1 14/4/1 19/4/1
f 25/6/1 22/6/1 21/6/1
f 26/6/1 24/6/1 23/6/1
f 27/6/1 25/6/1 21/6/1
f 28/6/1 25/6/1 27/6/1
f 29/6/1 24/6/1 26/6/1
f 30/6/1 24/6/1 29/6/1
f 39/1/1 32/1/1 31/1/1
f 40/1/1 32/1/1 39/1/1
f 41/1/1 34/1/1 33/1/1
f 42/1/1 34/1/1 41/1/1
f 43/1/1 36/1/1 35/1/1
f 44/1/1 36/1/1 43/1/1
f 45/1/1 38/1/1 37/1/1
f 46/1/1 38/1/1 45/1/1
f 49/6/1 48/6/1 47/6/1
f 52/6/1 49/6/1 47/6/1
f 52/6/1 51/6/1 50/6/1
f 52/6/1 50/6/1 49/6/1
f 53/6/1 51/6/1 52/6/1
f 56/6/1 55/6/1 54/6/1
f 57/6/1 55/6/1 56/6/1
f 58/4/2 59/4/2 60/4/2
f 60/4/2 59/4/2 61/4/2
f 62/4/2 63/4/2 64/4/2
f 64/4/2 63/4/2 65/4/2
f 66/6/2 67/6/2 70/6/2
f 70/6/2 67/6/2 71/6/2
f 68/6/2 69/6/2 72/6/2
f 72/6/2 69/6/2 73/6/2
f 74/6/2 75/6/2 78/6/2
f 78/6/2 75/6/2 79/6/2
f 76/6/2 77/6/2 80/6/2
f 80/6/2 77/6/2 81/6/2
f 82/6/2 83/6/2 86/6/2
f 86/6/2 83/6/2 87/6/2
f 84/6/2 85/6/2 88/6/2
f 88/6/2 85/6/2 89/6/2
f 90/6/2 91/6/2 94/6/2
f 92/6/2 93/6/2 95/6/2
f 90/6/2 94/6/2 96/6/2
f 96/6/2 94/6/2 97/6/2
f 95/6/2 93/6/2 98/6/2
f 98/6/2 93/6/2 99/6/2
f 100/1/2 101/1/2 108/1/2
f 108/1/2 101/1/2 109/1/2
f 102/1/2 103/1/2 110/1/2
f 110/1/2 103/1/2 111/1/2
f 104/1/2 105/1/2 112/1/2
f 112/1/2 105/1/2 113/1/2
f 106/1/2 107/1/2 114/1/2
f 114/1/2 107/1/2 115/1/2
f 109/6/2 110/6/2 116/6/2
f 116/6/2 110/6/2 117/6/2
f 113/6/2 114/6/2 118/6/2
f 118/6/2 114/6/2 119/6/2
f 120/1/2 121/1/2 124/1/2
f 124/1/2 121/1/2 125/1/2
f 122/1/2 123/1/2 126/1/2
f 126/1/2 123/1/2 127/1/2
f 128/6/2 129/6/2 132/6/2
f 132/6/2 129/6/2 133/6/2
f 130/6/2 131/6/2 134/6/2
f 134/6/2 131/6/2 135/6/2
f 136/5/2 137/5/2 140/5/2
f 140/5/2 137/5/2 141/5/2
f 138/5/2 139/5/2 142/5/2
f 142/5/2 139/5/2 143/5/2
f 144/6/2 145/6/2 146/6/2
f 146/6/2 145/6/2 147/6/2
f 149/6/2 150/6/2 152/6/2
f 150/6/2 151/6/2 152/6/2
f 148/6/2 149/6/2 152/6/2
f 152/6/2 151/6/2 153/6/2
f 153/6/2 151/6/2 154/6/2
f 154/6/2 151/6/2 155/6/2
f 153/6/2 154/6/2 157/6/2
f 157/6/2 154/6/2 158/6/2
f 156/6/2 157/6/2 160/6/2
f 158/6/2 159/6/2 160/6/2
f 157/6/2 158/6/2 160/6/2
f 160/6/2 159/6/2 161/6/2
f 162/3/2 163/3/2 164/3/2
f 164/3/2 163/3/2 165/3/2
f 164/2/2 165/2/2 166/2/2
f 166/2/2 165/2/2 167/2/2
f 170/1/3 169/1/3 168/1/3
f 171/1/3 169/1/3 170/1/3
f 174/4/3 173/4/3 172/4/3
f 175/4/3 173/4/3 174/4/3
f 176/4/3 174/4/3 172/4/3
f 177/6/3 175/6/3 174/6/3
f 177/4/3 174/4/3 176/4/3
f 178/6/3 175/6/3 177/6/3
f 179/6/3 175/6/3 178/6/3
f 180/6/3 177/6/3 176/6/3
f 180/6/3 178/6/3 177/6/3
f 181/6/3 178/6/3 180/6/3
f 184/6/3 183/6/3 182/6/3
f 185/6/3 183/6/3 184/6/3
f 186/6/3 183/6/3 185/6/3
f 187/6/3 183/6/3 186/6/3
f 189/6/3 186/6/3 185/6/3
f 190/6/3 186/6/3 189/6/3
f 191/1/3 189/1/3 188/1/3
f 192/1/3 189/1/3 191/1/3
f 196/4/3 194/4/3 193/4/3
f 197/4/3 196/4/3 195/4/3
f 198/4/3 194/4/3 196/4/3
f 198/4/3 196/4/3 197/4/3
f 199/4/3 194/4/3 198/4/3
f 200/4/3 194/4/3 199/4/3
f 204/6/3 202/6/3 201/6/3
f 205/6/3 204/6/3 203/6/3
f 206/6/3 204/6/3 205/6/3
f 207/6/3 202/6/3 204/6/3
f 207/6/3 204/6/3 206/6/3
f 208/6/3 202/6/3 207/6/3
f 210/6/3 207/6/3 206/6/3
f 211/6/3 207/6/3 210/6/3
f 213/6/3 211/6/3 210/6/3
f 213/6/3 212/6/3 211/6/3
f 213/6/3 210/6/3 209/6/3
f 214/6/3 212/6/3 213/6/3
f 215/6/3 213/6/3 209/6/3
f 216/6/3 213/6/3 215/6/3
f 217/5/3 214/5/3 213/5/3
f 217/6/3 213/6/3 216/6/3
f 218/6/3 212/6/3 214/6/3
f 218/5/3 214/5/3 217/5/3
f 219/6/3 217/6/3 216/6/3
f 220/6/3 217/6/3 219/6/3
f 221/6/3 212/6/3 218/6/3
f 222/6/3 212/6/3 221/6/3
f 225/4/3 224/4/3 223/4/3
f 226/4/3 224/4/3 225/4/3
f 229/6/3 228/6/3 227/6/3
f 230/6/3 228/6/3 229/6/3
f 235/6/3 232/6/3 231/6/3
f 236/6/3 232/6/3 235/6/3
f 237/6/3 232/6/3 236/6/3
f 238/6/3 232/6/3 237/6/3
f 239/6/3 234/6/3 233/6/3
f 240/6/3 234/6/3 239/6/3
f 241/3/3 237/3/3 236/3/3
f 242/2/3 238/2/3 237/2/3
f 242/3/3 237/3/3 241/3/3
f 243/2/3 238/2/3 242/2/3
f 246/1/3 245/1/3 244/1/3
f 247/1/3 245/1/3 246/1/3
f 250/6/3 249/6/3 248/6/3
f 251/6/3 249/6/3 250/6/3
f 252/6/3 249/6/3 251/6/3
f 253/6/3 249/6/3 252/6/3
f 255/6/3 252/6/3 251/6/3
f 256/6/3 252/6/3 255/6/3
f 257/1/3 255/1/3 254/1/3
f 258/1/3 255/1/3 257/1/3
f 259/6/4 260/6/4 261/6/4
f 261/6/4 260/6/4 262/6/4
f 262/6/4 260/6/4 263/6/4
f 263/6/4 260/6/4 264/6/4
f 262/6/4 263/6/4 266/6/4
f 266/6/4 263/6/4 267/6/4
f 265/1/4 266/1/4 268/1/4
f 268/1/4 266/1/4 269/1/4
f 270/1/4 271/1/4 272/1/4
f 272/1/4 271/1/4 273/1/4
f 274/4/4 275/4/4 276/4/4
f 276/4/4 275/4/4 277/4/4
f 278/6/4 279/6/4 280/6/4
f 278/6/4 280/6/4 281/6/4
f 281/6/4 280/6/4 282/6/4
f 283/6/4 284/6/4 287/6/4
f 287/6/4 284/6/4 288/6/4
f 288/6/4 284/6/4 289/6/4
f 289/6/4 284/6/4 290/6/4
f 285/6/4 286/6/4 291/6/4
f 291/6/4 286/6/4 292/6/4
f 288/3/4 289/3/4 293/3/4
f 289/2/4 290/2/4 294/2/4
f 293/3/4 289/3/4 294/3/4
f 294/2/4 290/2/4 295/2/4
f 296/4/4 297/4/4 299/4/4
f 298/4/4 299/4/4 300/4/4
f 299/4/4 297/4/4 301/4/4
f 300/4/4 299/4/4 301/4/4
f 301/4/4 297/4/4 302/4/4
f 302/4/4 297/4/4 303/4/4
f 304/6/4 305/6/4 307/6/4
f 306/6/4 307/6/4 308/6/4
f 308/6/4 307/6/4 309/6/4
f 307/6/4 305/6/4 310/6/4
f 309/6/4 307/6/4 310/6/4
f 310/6/4 305/6/4 311/6/4
f 309/6/4 310/6/4 313/6/4
f 312/6/4 313/6/4 316/6/4
f 313/6/4 310/6/4 316/6/4
f 314/6/4 315/6/4 317/6/4
f 317/6/4 315/6/4 318/6/4
f 316/6/4 317/6/4 318/6/4
f 318/6/4 315/6/4 319/6/4
f 312/6/4 316/6/4 320/6/4
f 316/6/4 318/6/4 320/6/4
f 320/6/4 318/6/4 321/6/4
f 318/5/4 319/5/4 322/5/4
f 321/6/4 318/6/4 322/6/4
f 319/6/4 315/6/4 323/6/4
f 322/5/4 319/5/4 323/5/4
f 321/6/4 322/6/4 324/6/4
f 324/6/4 322/6/4 325/6/4
f 323/6/4 315/6/4 326/6/4
f 326/6/4 315/6/4 327/6/4
f 328/4/4 329/4/4 330/4/4
f 330/4/4 329/4/4 331/4/4
f 328/4/4 330/4/4 332/4/4
f 330/6/4 331/6/4 333/6/4
f 332/4/4 330/4/4 333/4/4
f 333/6/4 331/6/4 334/6/4
f 334/6/4 331/6/4 335/6/4
f 332/6/4 333/6/4 336/6/4
f 333/6/4 334/6/4 336/6/4
f 336/6/4 334/6/4 337/6/4
f 338/6/4 339/6/4 340/6/4
f 340/6/4 339/6/4 341/6/4
f 341/6/4 339/6/4 342/6/4
f 342/6/4 339/6/4 343/6/4
f 341/6/4 342/6/4 345/6/4
f 345/6/4 342/6/4 346/6/4
f 344/1/4 345/1/4 347/1/4
f 347/1/4 345/1/4 348/1/4
f 349/1/4 350/1/4 351/1/4
f 351/1/4 350/1/4 352/1/4
f 356/1/5 354/1/5 353/1/5
f 357/1/5 354/1/5 356/1/5
f 359/6/5 356/6/5 355/6/5
f 359/6/5 357/6/5 356/6/5
f 360/6/5 357/6/5 359/6/5
f 361/1/5 358/1/5 357/1/5
f 361/6/5 357/6/5 360/6/5
f 362/1/5 358/1/5 361/1/5
f 363/1/5 361/1/5 360/1/5
f 364/1/5 361/1/5 363/1/5
f 368/1/5 366/1/5 365/1/5
f 369/1/5 366/1/5 368/1/5
f 371/6/5 369/6/5 368/6/5
f 371/6/5 368/6/5 367/6/5
f 372/6/5 369/6/5 371/6/5
f 373/1/5 370/1/5 369/1/5
f 373/6/5 369/6/5 372/6/5
f 374/1/5 370/1/5 373/1/5
f 375/1/5 373/1/5 372/1/5
f 376/1/5 373/1/5 375/1/5
f 380/4/5 378/4/5 377/4/5
f 381/6/5 379/6/5 378/6/5
f 381/4/5 378/4/5 380/4/5
f 382/6/5 379/6/5 381/6/5
f 386/6/5 381/6/5 380/6/5
f 386/6/5 385/6/5 384/6/5
f 386/6/5 384/6/5 383/6/5
f 386/6/5 383/6/5 382/6/5
f 386/6/5 382/6/5 381/6/5
f 388/6/5 386/6/5 380/6/5
f 388/6/5 387/6/5 386/6/5
f 389/6/5 387/6/5 388/6/5
f 390/4/5 380/4/5 377/4/5
f 390/6/5 388/6/5 380/6/5
f 391/6/5 388/6/5 390/6/5
f 392/6/5 388/6/5 391/6/5
f 393/6/5 388/6/5 392/6/5
f 394/6/5 388/6/5 393/6/5
f 395/6/5 388/6/5 394/6/5
f 396/4/5 390/4/5 377/4/5
f 396/4/5 391/4/5 390/4/5
f 397/6/5 392/6/5 391/6/5
f 397/4/5 391/4/5 396/4/5
f 398/6/5 392/6/5 397/6/5
f 403/3/5 402/3/5 401/3/5
f 404/3/5 402/3/5 403/3/5
f 405/4/5 400/4/5 399/4/5
f 406/4/5 400/4/5 405/4/5
f 411/6/5 410/6/5 409/6/5
f 412/6/5 410/6/5 411/6/5
f 415/4/5 408/4/5 407/4/5
f 416/4/5 408/4/5 415/4/5
f 417/6/5 414/6/5 413/6/5
f 418/6/5 414/6/5 417/6/5
f 421/6/5 420/6/5 419/6/5
f 422/6/5 420/6/5 421/6/5
f 425/6/5 424/6/5 423/6/5
f 426/6/5 424/6/5 425/6/5
f 429/6/5 428/6/5 427/6/5
f 430/6/5 428/6/5 429/6/5
f 431/1/6 432/1/6 433/1/6
f 433/1/6 432/1/6 434/1/6
f 434/1/6 435/1/6 437/1/6
f 437/1/6 435/1/6 438/1/6
f 436/1/6 437/1/6 439/1/6
f 439/1/6 437/1/6 440/1/6
f 441/1/6 442/1/6 443/1/6
f 443/1/6 442/1/6 444/1/6
f 444/1/6 445/1/6 447/1/6
f 447/1/6 445/1/6 448/1/6
f 446/1/6 447/1/6 449/1/6
f 449/1/6 447/1/6 450/1/6
f 451/6/6 452/6/6 453/6/6
f 453/6/6 452/6/6 454/6/6
f 455/6/6 456/6/6 457/6/6
f 457/6/6 456/6/6 458/6/6
f 459/6/6 460/6/6 461/6/6
f 461/6/6 460/6/6 462/6/6
f 463/6/6 464/6/6 465/6/6
f 465/6/6 464/6/6 466/6/6
f 467/6/6 468/6/6 469/6/6
f 469/6/6 468/6/6 470/6/6
f 471/6/6 472/6/6 473/6/6
f 473/6/6 472/6/6 474/6/6
f 475/2/6 476/2/6 479/2/6
f 479/2/6 476/2/6 480/2/6
f 477/6/6 478/6/6 483/6/6
f 483/6/6 478/6/6 484/6/6
f 481/6/6 482/6/6 485/6/6
f 485/6/6 482/6/6 486/6/6
f 487/4/6 488/4/6 490/4/6
f 490/4/6 488/4/6 491/4/6
f 488/6/6 489/6/6 492/6/6
f 492/6/6 493/6/6 496/6/6
f 494/6/6 495/6/6 498/6/6
f 498/6/6 495/6/6 499/6/6
f 496/6/6 497/6/6 500/6/6
f 492/6/6 496/6/6 500/6/6
f 500/6/6 497/6/6 501/6/6
f 491/4/6 488/4/6 505/4/6
f 488/6/6 492/6/6 506/6/6
f 492/6/6 500/6/6 506/6/6
f 506/6/6 500/6/6 507/6/6
f 502/6/6 503/6/6 508/6/6
f 508/6/6 503/6/6 509/6/6
f 504/4/6 505/4/6 510/4/6
f 505/4/6 488/4/6 511/4/6
f 510/4/6 505/4/6 511/4/6
f 488/6/6 506/6/6 511/6/6
f 511/6/6 506/6/6 512/6/6
f 513/4/6 514/4/6 515/4/6
f 515/4/6 514/4/6 516/4/6
f 516/4/6 514/4/6 518/4/6
f 517/4/6 518/4/6 519/4/6
f 518/4/6 514/4/6 520/4/6
f 519/4/6 518/4/6 520/4/6
f 523/4/6 524/4/6 525/4/6
f 525/4/6 524/4/6 526/4/6
f 521/6/6 522/6/6 527/6/6
f 527/6/6 522/6/6 528/6/6
